<svg id="_04" data-name="04" xmlns="http://www.w3.org/2000/svg" viewBox="0 0 512 512"><defs><style>.cls-1{fill:#fff;}.cls-2{fill:#2e4ce4;}.cls-3{fill:#fec341;}.cls-4,.cls-7{fill:none;stroke:#000;stroke-miterlimit:10;}.cls-4{stroke-width:4.9px;}.cls-5{fill:#e95539;}.cls-6{fill:#fbddbf;}.cls-7{stroke-width:0.5px;}.cls-8,.cls-9{fill:#b0d5f1;}.cls-8{opacity:0.35;}</style></defs><title>Mesa de trabajo 5</title><path class="cls-1" d="M256,512A255.05,255.05,0,0,1,96.05,455.88c-1.89-1.51-3.82-3.09-5.69-4.68a245.08,245.08,0,0,1-21.54-20.6,254.79,254.79,0,0,1-22.6-27.85l-2.34-3.39c-1.12-1.65-2.18-3.27-3.22-4.88A258.81,258.81,0,0,1,19.5,354.17,255.28,255.28,0,0,1,0,256C0,114.84,114.84,0,256,0a259.36,259.36,0,0,1,29.84,1.74A252.49,252.49,0,0,1,323.34,9,256.23,256.23,0,0,1,455.71,95.83c1.37,1.7,2.71,3.43,4.05,5.19a254.14,254.14,0,0,1,18.46,27.79c3.93,6.83,7.68,14.14,11.11,21.7a253.67,253.67,0,0,1,22.13,88.91c.36,5.44.54,11,.54,16.58C512,397.16,397.16,512,256,512Z"/><path class="cls-2" d="M497.81,254.59a259.16,259.16,0,0,1-8.35,64.86v0c-3.2,12.09-32.52,39.59-37.36,50.51-12.54,28.45-5,36.95-26.35,57.13a240.78,240.78,0,0,1-55.66,39.2c-.73.39-1.46.76-2.2,1.12A256.65,256.65,0,0,1,304,489.36c-42.43,8.57-156.19-53.84-162.8-56.85C119,422.42,16.81,296.56,14.88,272,11,223.61,23,177.7,45.78,138.35c5.88-10.16,36.68-9.85,43.92-19,14.79-18.83,8.06-45.59,27.46-59.59,32.9-23.83,71.42-39.84,112-45.23l.15,0h0c2.09-.27,135.18,42.74,136,43.26,5.37,3.06,115.66,106.39,121.47,124.88A235.59,235.59,0,0,1,497.81,254.59Z"/><path class="cls-3" d="M486.87,182.6c-20.33,3.26-41.6-.17-59.67-11.21-33.65-20.52-40.5-67.07-74.49-84.21C322.05,71.7,282.85,82.26,254.5,61A55.22,55.22,0,0,1,250,57.13c-10.73-10.11-17.88-26-20.6-42.67A225.7,225.7,0,0,1,340,27.38,246.28,246.28,0,0,1,390,53.53C436.23,84,470.41,130.27,486.87,182.6Z"/><path class="cls-3" d="M304,489.36c-50.29,10.16-103.6,5.36-150.93-16.14C103,450.5,59.66,409.14,33.56,347.1A240.56,240.56,0,0,1,14.88,272a73.55,73.55,0,0,1,36.46-6.88C69.9,266.56,88,276.43,97.89,292.2c9.4,14.94,10.92,33.28,13.68,50.68s7.79,35.95,21.55,47c15.72,12.56,37.83,11.68,57.93,11.92,23.85.3,48.24,3.19,69.59,13.81S300,445.68,304,469.21A60.57,60.57,0,0,1,304,489.36Z"/><circle class="cls-4" cx="260.06" cy="77.1" r="20.94"/><line class="cls-4" x1="260.38" y1="98.67" x2="260.38" y2="117.42"/><circle cx="250.74" cy="268.91" r="157.96" transform="translate(-116.71 256.06) rotate(-45)"/><circle class="cls-5" cx="270.01" cy="263.52" r="157.96"/><path d="M406.05,225.43a140.87,140.87,0,0,1-15.3,111.46c-17.94,29.56-58.49,5.93-94.43,16-75.15,21-100.61,4.68-121.65-70.47-10.07-36-46-53.41-30-84.1a141.29,141.29,0,0,1,261.4,27.12Z"/><path class="cls-6" d="M403.3,230.09a141.18,141.18,0,0,1-10.79,103.65,141.67,141.67,0,0,1-246.76-139,141.68,141.68,0,0,1,257.55,35.3Z"/><circle class="cls-7" cx="269" cy="263.85" r="131.74" transform="translate(-107.78 267.49) rotate(-45)"/><circle class="cls-7" cx="269" cy="263.85" r="108.26" transform="translate(-107.78 267.49) rotate(-45)"/><circle class="cls-7" cx="269" cy="263.85" r="74.04" transform="translate(-34.53 487.11) rotate(-80.78)"/><path class="cls-8" d="M256.64,276.92s.11-.15.22-.3L339,318.9l-64.78-68.4-.21.3-82.1-42.28Z"/><path class="cls-8" d="M276.86,278.8l-.18-.32L351,220.7l-90.5,30.92.18.32-73.45,56Z"/><polygon class="cls-9" points="286.17 264.38 249.03 264.38 249.16 263.78 269.52 167.08 286.17 264.38"/><polygon points="286.21 264.59 265.63 361.39 249.06 264.42 249.02 264.42 249.03 264.38 286.17 264.38 286.21 264.59"/><circle class="cls-6" cx="267.04" cy="264.87" r="13.53"/><path class="cls-9" d="M155.45,149.79l-45.54-15.08L125,180.25l-31.9-35.8-9.75,46.94-9.72-46.94-31.93,35.8L56.8,134.71l-11,3.64a248.58,248.58,0,0,1,19.73-29.09,257.28,257.28,0,0,1,51.65-49.55L109.91,81.6l45.54-15.09-35.8,31.91,46.94,9.72-46.94,9.74Z"/><path class="cls-9" d="M489.46,319.48A229.72,229.72,0,0,1,477.37,354a225.65,225.65,0,0,1-51.62,73.12l7.4-22.34L387.6,419.87,423.4,388l-46.94-9.74,46.94-9.75-35.8-31.9,45.55,15.08-15.09-45.52L450,341.93l9.74-47,9.72,47Z"/><path d="M433.76,164.89a1,1,0,0,1-1-1v-70a1,1,0,0,1,2,0v70A1,1,0,0,1,433.76,164.89Z"/><path d="M451.53,112.52l-15.35,15.35-1,1-.42.41-.59.59-.41.42-1,1-23,23a1,1,0,0,1-.71.3,1,1,0,0,1-.71-.3,1,1,0,0,1,0-1.42l42-42C450.75,111.42,451.14,112,451.53,112.52Z"/><path d="M463.07,129.88H398.74a1,1,0,0,1-1-1,1,1,0,0,1,1-1h63.1C462.26,128.54,462.65,129.22,463.07,129.88Z"/><path d="M458.51,154.64a1,1,0,0,1-.71-.29l-49.51-49.51a1,1,0,1,1,1.42-1.42l49.51,49.51a1,1,0,0,1,0,1.42A1,1,0,0,1,458.51,154.64Z"/><path d="M91.32,362.28v69.49c-.66-.61-1.32-1.25-2-1.89v-67.6a1,1,0,1,1,2,0Z"/><path d="M115.78,373.25l-23,23-1,1-.42.42-.58.59-.4.41-1,1L74.7,414.33l-1.33-1.49,16.56-16.55.41-.39,1-1,23.07-23.06a1,1,0,0,1,1.39,0A1,1,0,0,1,115.78,373.25Z"/><path d="M126.34,397.29a1,1,0,0,1-1,1H62.09c-.52-.66-1-1.33-1.45-2h64.69A1,1,0,0,1,126.34,397.29Z"/><path d="M115.09,423.05a1,1,0,0,1-.71-.3L64.87,373.24a1,1,0,1,1,1.41-1.41l49.51,49.51a1,1,0,0,1,0,1.41A1,1,0,0,1,115.09,423.05Z"/><path d="M300,442.64a37.48,37.48,0,0,0-12.27,6.76c-7.2-5.36-16.92-7.59-25.39-6.78-9.45.85-19.84,5.68-26.23,13.71-10.45-6.74-25.46-6.81-36.56-1.37-11.82,5.8-20.24,16.23-26.34,26.27.81.32,1.59.59,2.4.83,5.85-9.6,13.91-19.44,25.05-24.9,10.35-5.09,24.31-5.07,34,1.13a27.65,27.65,0,0,0-4,9.25c-.93,4.14-.61,7.84.91,10.7,2,3.72,6.17,5.81,9.77,4.78a7.29,7.29,0,0,0,4.82-4.29c1.5-3.35,1.25-8.18-.64-12a26,26,0,0,0-7.41-9c5.95-7.45,15.64-11.88,24.46-12.71a35.53,35.53,0,0,1,23.33,6c-4.72,4.66-7.56,10.58-6.46,17,.9,5.22,5.48,10.29,10.85,9.45a7.85,7.85,0,0,0,5.7-4c2-3.4,2.23-8.47.64-12.58a25.36,25.36,0,0,0-7-9.89,35.78,35.78,0,0,1,11.12-6c23.95-7.93,52.42,2.23,67.09,22.5.74-.36,1.47-.73,2.2-1.12C354.86,445,325.07,434.34,300,442.64Zm-56.69,25.2c1.57,3.13,1.81,7.22.59,9.91a4.92,4.92,0,0,1-3.23,2.92c-2.77.76-5.71-1.2-7-3.55-1.56-3-1.22-6.57-.66-9a25,25,0,0,1,3.6-8.37A23.6,23.6,0,0,1,243.33,467.84Zm51-6.1a12.91,12.91,0,0,1-.49,10.48,5.34,5.34,0,0,1-3.94,2.84c-3.9.59-7.37-3.45-8.08-7.44-1-5.64,1.64-10.88,6-15A23.22,23.22,0,0,1,294.36,461.74Z"/><path d="M371.44,42.12C366,44.94,361,48.78,356.21,52.51c-5.31,4.13-10.8,8.4-16.94,11.16-18.32,8.25-42.07.91-52.79-16,5.48-1,9.91-3.53,12.63-7.2a13.85,13.85,0,0,0,1.62-12.64,10,10,0,0,0-6.93-6.53c-6.22-1.45-12.2,3.82-13.64,9.45-1.4,5.41.32,10.87,2.37,15a25.89,25.89,0,0,1-3.35,0,45.94,45.94,0,0,1-35-18.51A37.89,37.89,0,0,1,238,13.48c-.81.07-1.61.14-2.42.24a40.06,40.06,0,0,0,6.58,15A48.49,48.49,0,0,0,279.08,48.2a33.69,33.69,0,0,0,4.75-.15c8,13.44,23.7,21.45,39.25,21.45a41.62,41.62,0,0,0,17.19-3.6c6.42-2.86,12-7.22,17.43-11.46,5-3.87,10.19-7.91,15.9-10.65a3.49,3.49,0,0,1,.44-.2C373.18,43.08,372.32,42.59,371.44,42.12ZM282.53,31.35c1-4,4.85-7.86,9.11-7.86a6.79,6.79,0,0,1,1.59.2,7.51,7.51,0,0,1,5.19,5A11.44,11.44,0,0,1,297.13,39c-3,4.07-7.86,5.73-12,6.4C283.12,41.63,281.24,36.39,282.53,31.35Z"/></svg>