<svg xmlns="http://www.w3.org/2000/svg" viewBox="0 0 512 512"><defs><style>.cls-1{fill:#fff;}.cls-2{fill:#b0d5f1;}.cls-3{fill:#fcbbe1;}.cls-4{fill:#fec341;}.cls-5{fill:#2e4ce4;}.cls-6{opacity:0.46;}.cls-7{opacity:0.27;}.cls-8{fill:#fbddbf;}.cls-9{fill:none;stroke:#000;stroke-miterlimit:10;stroke-width:2.45px;}</style></defs><title>Mesa de trabajo 4</title><g id="_03" data-name="03"><path class="cls-1" d="M256,512A255.05,255.05,0,0,1,96.05,455.88c-1.89-1.51-3.82-3.09-5.69-4.68a245.08,245.08,0,0,1-21.54-20.6,254.79,254.79,0,0,1-22.6-27.85l-2.34-3.39c-1.12-1.65-2.18-3.27-3.22-4.88A258.81,258.81,0,0,1,19.5,354.17,255.28,255.28,0,0,1,0,256C0,114.84,114.84,0,256,0a259.36,259.36,0,0,1,29.84,1.74A252.49,252.49,0,0,1,323.34,9,256.23,256.23,0,0,1,455.71,95.83c1.37,1.7,2.71,3.43,4.05,5.19a254.14,254.14,0,0,1,18.46,27.79c3.93,6.83,7.68,14.14,11.11,21.7a253.67,253.67,0,0,1,22.13,88.91c.36,5.44.54,11,.54,16.58C512,397.16,397.16,512,256,512Z"/><path class="cls-2" d="M478,350.84c-.11.28-.23.55-.35.82C423.13,475.39,270.12,523.9,153.37,470.89c-27.95-12.7-43.55-40-56.43-72.42-.31-.78-.62-1.56-.92-2.35-3.15-8.05-6.14-16.41-9.12-24.92-.27-.75-.53-1.51-.8-2.27l-2.92-8.38c-.25-.72-.5-1.44-.76-2.17-2.16-6.21-4.37-12.47-6.66-18.72-.59-1.63-1.19-3.25-1.81-4.88-.23-.64-.47-1.27-.72-1.91-2-5.28-4.07-10.55-6.26-15.76-.06-.16-.12-.31-.19-.47l-.06-.14Q63.81,309.62,61.1,303c-.11-.25-.21-.49-.3-.74s-.16-.37-.23-.56q-3.1-7.61-5.89-14.93c-27-70.82,17.62-187.79,21-191.63,39.48-44.43,94.41-75.09,153.81-83,4.7-.63,13.19,30.18,17.94,29.84,5.38-.38,7-31.84,12.46-31.84h0a225.28,225.28,0,0,1,80.34,14.91c17,6.46,11.49,35.48,27.84,46.53,23.62,15.58,41.38,31,54.46,47.93q1.11,1.42,2.16,2.88a136,136,0,0,1,11.19,18c.35.68.69,1.35,1,2q2.6,5.2,4.74,10.68c.29.72.57,1.44.84,2.17a159.74,159.74,0,0,1,6.66,22.91c.27,1.25.53,2.5.77,3.77a238.15,238.15,0,0,1,3.67,29.43c.46,6.81.7,13.91.76,21.35,0,1.89,0,3.81,0,5.75a73,73,0,0,0,1.4,14c.06.3.12.61.19.92.09.51.2,1,.31,1.53.83,3.85,1.9,7.76,3.11,11.7C468.72,296.78,487,328.77,478,350.84Z"/><path class="cls-3" d="M199.28,406.29c-4.14,17.78-14.52,33.6-26.91,47a165.67,165.67,0,0,1-19,17.59c-50-22.73-93.39-64.08-119.49-126.13a254.1,254.1,0,0,1-9-24.7q-1.8-5.87-3.27-11.7l-.18-.7q-2-8-3.41-16L17.9,291l-.09-.54q-1.23-7.09-2-14.13C9.06,214.18,28.45,155.8,63.73,109.65c.69-.91,1.39-1.82,2.1-2.72a89.71,89.71,0,0,1,9.36,5c19.39,11.85,33.86,33.7,32.66,57-.95,19.17-11.65,36.24-18.36,54.21s-8.52,40.69,5.26,54c11.34,10.93,28.77,11.39,43.76,16.19,14.79,4.74,27.52,14.09,37.55,26a104.22,104.22,0,0,1,10.79,15.48l.19.34a111.22,111.22,0,0,1,8.72,19.63c.46,1.38.9,2.78,1.3,4.18C201.55,374.28,202.89,390.72,199.28,406.29Z"/><path class="cls-3" d="M498.13,252.25c-.19,37.07-7.59,70.32-20.44,99.41-3,0-6-.14-9-.41-31-2.84-60.3-20.67-77.3-46.82s-21.42-60-12-89.69c6.52-20.54,19.37-40.62,15.72-61.83a42.06,42.06,0,0,0-21.62-29.67c-10.26-5.37-22.47-6.3-32.56-12-19.13-10.78-25.54-37-18.64-57.81,3.6-10.8,10-20.25,17.95-28.38A245.54,245.54,0,0,1,390.32,51.2C457,95.17,498.55,171.77,498.13,252.25Z"/><path d="M423.65,193.21a1.08,1.08,0,0,1-1.08-1.08V116.28a1.08,1.08,0,1,1,2.16,0v75.85A1.08,1.08,0,0,1,423.65,193.21Z"/><path d="M396.83,182.1a1.08,1.08,0,0,1-.77-1.85l53.64-53.63a1.09,1.09,0,1,1,1.54,1.53L397.6,181.79A1.08,1.08,0,0,1,396.83,182.1Z"/><path d="M461.58,155.29H385.72a1.09,1.09,0,0,1,0-2.17h75.86a1.09,1.09,0,0,1,0,2.17Z"/><path d="M450.47,182.1a1.08,1.08,0,0,1-.77-.31l-53.64-53.64a1.09,1.09,0,0,1,1.54-1.53l53.64,53.63a1.08,1.08,0,0,1-.77,1.85Z"/><path d="M112.31,419.92a.94.94,0,0,1-1-.95v-66.7a1,1,0,1,1,1.9,0V419A.94.94,0,0,1,112.31,419.92Z"/><path d="M88.73,410.16a1,1,0,0,1-.68-.28,1,1,0,0,1,0-1.35l47.17-47.17a1,1,0,1,1,1.35,1.35L89.4,409.88A1,1,0,0,1,88.73,410.16Z"/><path d="M145.66,386.57H79a.95.95,0,0,1,0-1.9h66.7a1,1,0,1,1,0,1.9Z"/><path d="M135.89,410.16a1,1,0,0,1-.67-.28L88.05,362.71a1,1,0,1,1,1.35-1.35l47.17,47.17a1,1,0,0,1,0,1.35A1,1,0,0,1,135.89,410.16Z"/><path class="cls-4" d="M298.72,72l-110-1.25,40.84-58.6a224.68,224.68,0,0,1,30.41-2Z"/><polygon class="cls-4" points="263.02 377.26 205.51 459.78 315.54 461.03 263.02 377.26"/><path d="M449.83,329.27l-2.27.93a50.9,50.9,0,0,1,4,17.91,39.5,39.5,0,0,1-1.64,12.75c-3.17,10.35-11.31,18.67-20.75,21.18-.46.12-.92.23-1.39.33.83-6.8-.62-13.13-4.14-17.73-4.92-6.44-14-8.58-20.23-4.8a9.17,9.17,0,0,0-3.89,4.36c-.92,2.41-.51,5.35,1.18,8.5,4.45,8.3,14.21,13.17,24.09,12.53-2.21,9.58-8.82,17.93-17.25,21.78a27.5,27.5,0,0,1-12.7,2.41,27.72,27.72,0,0,0-2.1-15.49c-1.83-4-5.29-7.37-8.83-8.64a8.61,8.61,0,0,0-6.82.27c-3.69,1.8-5.74,6.39-4.87,10.91s4.11,7.84,6.68,9.81a27.73,27.73,0,0,0,12.95,5.31c-1.72,7.11-6.16,13.61-12.53,17.1-11.35,6.21-27.45,2.12-34.46-8.75l-2,1.32c5.28,8.2,14.91,12.86,24.5,12.86a27.37,27.37,0,0,0,13.18-3.28,28.89,28.89,0,0,0,13.91-19,30,30,0,0,0,14.15-2.6c9.14-4.18,16.28-13.2,18.64-23.55.06-.25.12-.5.17-.76.82-.13,1.63-.31,2.44-.52,10.24-2.73,19.05-11.69,22.46-22.84A41.72,41.72,0,0,0,454,348.76,52.9,52.9,0,0,0,449.83,329.27ZM392.3,409.19a25.24,25.24,0,0,1-11.93-4.85c-2.23-1.71-5.05-4.55-5.77-8.33-.65-3.4.87-6.95,3.54-8.25a5.77,5.77,0,0,1,2.57-.6,7,7,0,0,1,2.36.44,14.16,14.16,0,0,1,7.42,7.35A25.14,25.14,0,0,1,392.3,409.19Zm32.94-26.47c-9,.78-18.38-3.67-22.4-11.18-.94-1.74-1.88-4.28-1-6.47a6.74,6.74,0,0,1,2.87-3.13,10.67,10.67,0,0,1,5.59-1.52,15,15,0,0,1,11.43,5.7C424.92,370.36,426.18,376.31,425.24,382.72Z"/><path class="cls-5" d="M373,162.26,360.16,193l-1.91,4.6-8.42,6.84L309.72,237l-22.66,18.41-8.7,7.07L269.05,270l-80.27,65.22-1.79-.47-.14,0-11.16-2.92-.77-.2L90.28,309.45l-.76-.2-28.95-7.59L17.81,290.45q-1.23-7.09-2-14.13C9.06,214.18,28.45,155.8,63.73,109.65c.69-.91,1.39-1.82,2.1-2.72q4.77-6.06,9.88-11.83Z"/><path d="M373,162.26v42.37l-6.32,5.54-36.42,31.94-11.09,9.73-13.48,11.83-11.09,9.72-41.16,36.1-6.84,6-23.77,20.85-.69.6-.24.22-11.92,10.45L197.06,358.9l-5.89,5.17,0,0-76.78-20.34-2.43-.65-13.73-3.63L96,338.9l-22.79-6-1.63-.44-2.08-.55L24.88,320.06q-1.8-5.87-3.27-11.7l-.18-.7q-2-8-3.41-16L17.9,291l-.09-.54q-1.23-7.09-2-14.13l38.86,10.41,121.38,32.54,9.06,2.43.12,0,1.7-1.45Z"/><g class="cls-6"><polygon class="cls-5" points="372.96 162.26 372.96 204.63 191.17 364.06 185.11 321.6 372.96 162.26"/></g><polygon points="199.76 329.97 344.52 377.04 488.49 219.73 363.74 189.92 199.76 329.97"/><polygon points="201.47 345.1 199.76 329.97 488.49 219.73 488.1 236.99 342.84 386.91 201.47 345.1"/><path class="cls-2" d="M411.18,261.5c.19,22.53-19.11,42.49-48.39,54C346.44,322,327,325.8,306,326c-30.93.26-58.82-7.5-78.26-20.08l50.38-43.76L307.06,237l38.74-33.66c36.47,8.87,62.71,29.72,65.19,54.59C411.11,259.12,411.17,260.31,411.18,261.5Z"/><g class="cls-7"><path class="cls-1" d="M411.18,261.5c.19,22.53-19.11,42.49-48.39,54l-35.36-47.07,8-11.1L411,258C411.11,259.12,411.17,260.31,411.18,261.5Z"/></g><path d="M340.16,255.85a11.38,11.38,0,0,1-.1,1.54c-.64,5.24-4.79,9.91-11.06,13.16a45.67,45.67,0,0,1-20.45,4.67c-14.2.12-26.27-5.38-30.39-13.09L307.06,237l1.17,0C325.77,236.85,340.07,245.29,340.16,255.85Z"/><path class="cls-8" d="M321.22,256c0,4.26-5.68,7.77-12.76,7.83s-12.86-3.35-12.89-7.61,5.68-7.77,12.76-7.83S321.19,251.74,321.22,256Z"/><path class="cls-8" d="M339.75,371.53l-.11,0-140-41.17a.39.39,0,0,1,.22-.74l139.77,41.11L488.21,219.46a.39.39,0,0,1,.55,0,.38.38,0,0,1,0,.54L340,371.41A.39.39,0,0,1,339.75,371.53Z"/><path class="cls-8" d="M175.4,330.77,90,308.41a.37.37,0,0,0-.32.07.39.39,0,0,0-.16.29v.48l-.58,18.35a.41.41,0,0,0,.29.39L96,329.74l2.17.55,21.12,5.43,2.45.63,53.45,13.74h.1a.4.4,0,0,0,.23-.08.39.39,0,0,0,.15-.31V331.15A.4.4,0,0,0,175.4,330.77Zm-.48,18.45-52.53-13.5-2.45-.63L98.19,329.5,96,328.94l-6.3-1.62.56-17.87v-.17l84.63,22.16Z"/><path class="cls-8" d="M64.37,303.16l-3.57-.94L17.9,291l.12.69L61.1,303l3.11.82a7.2,7.2,0,0,1,2.59,12.66l-.08.06a7.18,7.18,0,0,1-6.13,1.22L21.43,307.66l.18.7,38.82,10a7.88,7.88,0,0,0,2,.25A7.72,7.72,0,0,0,67,317.11l.22-.16a7.84,7.84,0,0,0-2.82-13.79Z"/><path class="cls-9" d="M172.51,101.07c2.58-10.87,8.62-21.38,18.29-27s23.23-5,30.92,3.07C224.48,80.08,226.42,84,226,88s-3.78,7.74-7.79,7.74c-3.83,0-7.07-3.33-8-7S210,81,211.3,77.42C216,63.8,227.75,52,242.08,50.31s29.81,9.54,30,24c0,4.1-1.66,8.83-5.6,10-3.5,1-7.2-1.44-9-4.58-5.14-8.89,1.58-20.31,10.08-26.06,15.26-10.32,36.89-10.15,52,.42"/></g></svg>