<svg xmlns="http://www.w3.org/2000/svg" viewBox="0 0 512 512"><defs><style>.cls-1{fill:#fff;}.cls-2{fill:#b0d5f1;}.cls-3{fill:#fcbbe1;}.cls-4{fill:#fbddbf;}.cls-5{fill:#2e4ce4;}.cls-6,.cls-7,.cls-8,.cls-9{fill:none;stroke:#000;}.cls-6{stroke-miterlimit:10;stroke-width:2.45px;}.cls-7,.cls-8,.cls-9{stroke-linecap:round;stroke-linejoin:round;}.cls-7{stroke-width:1.69px;}.cls-8{stroke-width:1.87px;}.cls-9{stroke-width:2.17px;}</style></defs><title>Mesa de trabajo 3</title><g id="_02" data-name="02"><path class="cls-1" d="M256,512A255.05,255.05,0,0,1,96.05,455.88c-1.89-1.51-3.82-3.09-5.69-4.68a245.08,245.08,0,0,1-21.54-20.6,254.79,254.79,0,0,1-22.6-27.85l-2.34-3.39c-1.12-1.65-2.18-3.27-3.22-4.88A258.81,258.81,0,0,1,19.5,354.17,255.28,255.28,0,0,1,0,256C0,114.84,114.84,0,256,0a259.36,259.36,0,0,1,29.84,1.74A252.49,252.49,0,0,1,323.34,9,256.23,256.23,0,0,1,455.71,95.83c1.37,1.7,2.71,3.43,4.05,5.19a254.14,254.14,0,0,1,18.46,27.79c3.93,6.83,7.68,14.14,11.11,21.7a253.67,253.67,0,0,1,22.13,88.91c.36,5.44.54,11,.54,16.58C512,397.16,397.16,512,256,512Z"/><path class="cls-2" d="M498.35,253.29c0,133.28-108,241.31-241.31,241.31a240.12,240.12,0,0,1-86.85-16.11c-23.26-9-48.72-82.68-55.06-89.54-7.74-8.25-75.47-29.83-81-43.15a239.7,239.7,0,0,1-13.59-44.52,242.35,242.35,0,0,1-4.78-48C15.73,120,123.77,12,257,12a241.93,241.93,0,0,1,28.14,1.64,236.92,236.92,0,0,1,35.33,6.81c11.36,3.08,47.53,75.62,57.4,84.9,8.18,7.72,83.37,18.94,88.61,28.08q5.73,9.94,10.48,20.47a239.8,239.8,0,0,1,20.84,83.76Q498.35,245.4,498.35,253.29Z"/><path class="cls-3" d="M466.52,133.41a95.67,95.67,0,1,1-146-113A240.41,240.41,0,0,1,391.2,52.68c11.09,7.43-1.72,23.53,8,32.65,8.18,7.71,39.1,8.21,46.13,17A241.27,241.27,0,0,1,466.52,133.41Z"/><path class="cls-3" d="M205.35,404.37a95.52,95.52,0,0,1-35.16,74.12,241.31,241.31,0,0,1-63.91-36.78c-1.81-1.45-3.62-2.94-5.38-4.43A243.13,243.13,0,0,1,80.65,418c-7.71-8.27,6.13-9.57-.38-18.85-.75-1.1-11.74-8.27-12.5-9.37-1-1.54-12.8-4.51-13.81-6.07A242.22,242.22,0,0,1,34.1,345.8a95.64,95.64,0,0,1,171.25,58.57Z"/><path d="M480.81,284h-35l-153-60.76L86,284a76,76,0,0,1,15.51-41.28c14.32-18.73,37.85-30.51,61.91-31,1.41-9.81,2.53-21.8,5.64-31.2,9.91-29.95,37.5-53.21,69-60.61s66,.43,92.24,19,44.16,47.11,51.43,77.75c25.09-4.84,52,4.43,70.22,21.81C464.34,250.26,474.88,266.88,480.81,284Z"/><path class="cls-4" d="M455.15,284H60.36a76.1,76.1,0,0,1,15.5-41.28c14.33-18.73,37.86-30.51,61.92-31,1.41-9.81,2.53-21.8,5.64-31.2,9.91-29.95,37.5-53.21,69-60.61s66,.43,92.24,19,44.16,47.11,51.42,77.75c25.1-4.84,52,4.43,70.23,21.81C438.68,250.26,449.22,266.88,455.15,284Z"/><path class="cls-1" d="M270.89,138.9l.39-.48a10,10,0,0,1,12.19-2.69,61.47,61.47,0,0,1,14,9.46,10.08,10.08,0,0,1,1.17,13.73h0A10,10,0,0,1,285.09,161a119.2,119.2,0,0,0-11.24-6.91A10,10,0,0,1,270.89,138.9Z"/><path class="cls-1" d="M302.29,165.9l3-3.2a6.73,6.73,0,0,1,9.31-.49,96.09,96.09,0,0,1,20.21,25.26,117.5,117.5,0,0,1,8,16.63,6.72,6.72,0,0,1-3.19,8.2h0a6.73,6.73,0,0,1-9.41-3.41,62.46,62.46,0,0,0-12.88-19.52A155,155,0,0,0,303,175.77,6.73,6.73,0,0,1,302.29,165.9Z"/><polygon points="280.23 317.22 280.23 240.48 237.84 240.48 237.84 317.22 205.68 317.22 260.5 377.15 312.38 317.22 280.23 317.22"/><polygon points="260.5 377.15 242.82 377.15 243.88 318.94 306.74 319.22 260.5 377.15"/><polygon class="cls-5" points="262.55 317.22 262.55 240.48 220.16 240.48 220.16 317.22 188.01 317.22 242.82 377.15 294.71 317.22 262.55 317.22"/><path class="cls-6" d="M245,479.47c-1.87-18.68-2.74-40.24,10.91-53.13,10.61-10,27.57-11.18,41-5.53,8.82,3.71,17.09,11.1,17.84,20.64s-9.85,19.21-18.36,14.83c-4.54-2.33-6.87-7.53-7.81-12.54-2.68-14.34,3.76-29.61,14.95-39s26.51-13,41-11.45c6.89.76,13.87,2.74,19.24,7.12s8.84,11.53,7.49,18.34-8.39,12.39-15.16,10.92c-8.58-1.87-11.9-12.54-11.28-21.3a50.2,50.2,0,0,1,59.37-45.79"/><path class="cls-6" d="M57.33,188.91c8.49,4.48,18,9.09,27.3,6.81,12.07-2.95,18.82-17.32,16.31-29.48-1.43-7-5.46-13.54-11.5-17.33-3.47-2.18-8.49-3.2-11.35-.27-3.74,3.85-.38,10.38,3.78,13.78,11.59,9.49,29.34,10.57,42,2.55s19.26-24.52,15.62-39"/><line class="cls-7" x1="201.19" y1="43.65" x2="201.19" y2="102.83"/><line class="cls-7" x1="222.12" y1="52.32" x2="180.27" y2="94.17"/><line class="cls-7" x1="230.78" y1="73.24" x2="171.6" y2="73.24"/><line class="cls-7" x1="222.12" y1="94.17" x2="180.27" y2="52.32"/><line class="cls-8" x1="436.47" y1="293.72" x2="436.47" y2="359.15"/><line class="cls-8" x1="459.6" y1="303.3" x2="413.33" y2="349.57"/><line class="cls-8" x1="469.18" y1="326.44" x2="403.75" y2="326.44"/><line class="cls-8" x1="459.6" y1="349.57" x2="413.33" y2="303.3"/><line class="cls-9" x1="117.42" y1="340.82" x2="117.42" y2="416.67"/><line class="cls-9" x1="144.24" y1="351.92" x2="90.6" y2="405.56"/><line class="cls-9" x1="155.35" y1="378.74" x2="79.49" y2="378.74"/><line class="cls-9" x1="144.24" y1="405.56" x2="90.6" y2="351.92"/><path class="cls-4" d="M236.92,417.91H80.65a237.18,237.18,0,0,1-21.35-26.3L57,388.3c-1-1.46-2-3-2.94-4.45,1.13,0,2.23,0,3.33,0,13.86.83,26.54,7.78,38.2,15.33,5.16,3.35,10.4,6.9,16.45,8.08,13.25,2.57,25.44-6.79,37.81-12.25a70,70,0,0,1,67,6.44C223.91,406.4,230.13,412.67,236.92,417.91Z"/><path class="cls-4" d="M449.14,107.23H256.24c4.55-13,21.59-17,35.18-14.4,5.71,1.11,11.26,3,17,3.55C322.18,97.8,335.67,91.9,347,84.09s21.3-17.53,32.66-25.32a106.91,106.91,0,0,1,10.83-6.53,241.35,241.35,0,0,1,54.77,50.07C446.59,103.93,447.86,105.57,449.14,107.23Z"/></g></svg>