<svg xmlns="http://www.w3.org/2000/svg" viewBox="0 0 512 512"><defs><style>.cls-1{fill:#fff;}.cls-2{fill:#fcbbe1;}.cls-3{fill:#fbddbf;}.cls-4{fill:#b0d5f1;}.cls-5,.cls-7,.cls-8{fill:none;stroke:#000;stroke-linecap:round;stroke-linejoin:round;}.cls-5{stroke-width:2.17px;}.cls-6{fill:#2e4ce4;}.cls-7{stroke-width:2.64px;}.cls-8{stroke-width:2.08px;}</style></defs><title>Mesa de trabajo 2</title><g id="_01" data-name="01"><path class="cls-1" d="M256,512A255.05,255.05,0,0,1,96.05,455.88c-1.89-1.51-3.82-3.09-5.69-4.68a245.08,245.08,0,0,1-21.54-20.6,254.79,254.79,0,0,1-22.6-27.85l-2.34-3.39c-1.12-1.65-2.18-3.27-3.22-4.88A258.81,258.81,0,0,1,19.5,354.17,255.28,255.28,0,0,1,0,256C0,114.84,114.84,0,256,0a259.36,259.36,0,0,1,29.84,1.74A252.49,252.49,0,0,1,323.34,9,256.23,256.23,0,0,1,455.71,95.83c1.37,1.7,2.71,3.43,4.05,5.19a254.14,254.14,0,0,1,18.46,27.79c3.93,6.83,7.68,14.14,11.11,21.7a253.67,253.67,0,0,1,22.13,88.91c.36,5.44.54,11,.54,16.58C512,397.16,397.16,512,256,512Z"/><path class="cls-2" d="M499.82,254.05c0,6.93-.3,13.9-.91,20.81V275c-.05.79-.12,1.57-.2,2.33a.25.25,0,0,1,0,.12A241.62,241.62,0,0,1,493.55,309a.48.48,0,0,1-.05.17c-.05.35-.15.69-.22,1a9.6,9.6,0,0,1-.3,1.23c0,.07,0,.12,0,.19a228.07,228.07,0,0,1-8.35,27.21c-.08.19-.15.39-.22.58v.05c-.27.74-.54,1.47-.86,2.21l-.59,1.44a.87.87,0,0,1-.1.25c-.19.61-.44,1.17-.68,1.76a4,4,0,0,1-.17.44c0,.05,0,.1-.05.12a.69.69,0,0,0-.05.13,225.63,225.63,0,0,1-65.65,91.94c-.81.69-1.61,1.35-2.45,2-2.35,1.94-4.72,3.8-7.12,5.63h0a6.62,6.62,0,0,1-.61.47c-.42.34-.83.66-1.27,1s-.91.68-1.37,1c-.22.15-.42.32-.64.47A244,244,0,0,1,382,461.91a.8.8,0,0,0-.22.12c-.74.44-1.49.88-2.23,1.3-.07.05-.15.07-.22.12a255.78,255.78,0,0,1-31.49,15.13.72.72,0,0,1-.22.1c-.71.32-1.42.59-2.13.86,0,0-.07,0-.1,0l-.22.07c-.34.12-.68.27-1,.39q-2.6,1-5.21,1.91c-.52.2-1.05.37-1.57.54-3.7,1.32-7.42,2.52-11.16,3.65h0c-.83.27-1.66.51-2.5.76h0c-3.31.95-6.64,1.83-10,2.67a1.74,1.74,0,0,0-.22.05c-.74.19-1.5.39-2.23.56a1.74,1.74,0,0,0-.22.05,264.39,264.39,0,0,1-31.51,5.34l-.22,0c-.74.1-1.5.15-2.23.22l-.22,0a240.22,240.22,0,0,1-31.52,1l-2.44-.07h-.22a243.12,243.12,0,0,1-31.49-3.31l-2.45-.46a225.38,225.38,0,0,1-99.61-44.71l-.47-.37s-.07-.07-.12-.1l-.1-.07c-.73-.56-1.49-1.1-2.22-1.67l-.22-.17-.1-.07C59.8,410.9,31.25,363,19.35,311.61c0-.07,0-.12,0-.19-.18-.76-.35-1.5-.52-2.26a1.54,1.54,0,0,0-.05-.17,252.87,252.87,0,0,1-4.82-31.56v-.12c-.08-.76-.15-1.54-.2-2.33v-.12a252.32,252.32,0,0,1-.51-31.59v-.05c0-.78.1-1.61.15-2.4v0a245.58,245.58,0,0,1,3.81-31.66c.13-.81.3-1.62.45-2.45A247.93,247.93,0,0,1,26,175c.24-.84.51-1.64.8-2.45a243.87,243.87,0,0,1,10.85-26.37l.22-.47c.71-1.49,1.45-2.94,2.2-4.41.08-.17.15-.31.25-.49,0,0,0-.07.05-.09.37-.79.78-1.55,1.17-2.28a232.48,232.48,0,0,1,87.17-92.17l.47-.29c3.67-2.15,7.37-4.28,11.21-6.27.81-.44,1.64-.86,2.45-1.25a2.86,2.86,0,0,1,.52-.27c.58-.31,1.15-.58,1.73-.88l2.4-1.2.74-.36a230.35,230.35,0,0,1,94.69-25.08l.58,0,1.86-.08a228.48,228.48,0,0,1,31.74,1.06c.73,0,1.44.12,2.18.19h.05c.07,0,.14,0,.22,0,.8.09,1.61.14,2.4.24l.31,0,2.45.29c.1,0,.2,0,.3.05a245.27,245.27,0,0,1,26,4.82,1.74,1.74,0,0,0,.22.05c.73.17,1.47.37,2.23.56a.59.59,0,0,0,.22.05,246.12,246.12,0,0,1,31.51,10.39l.22.07c.74.29,1.5.56,2.23.91a.68.68,0,0,1,.22.09c4.73,1.94,9.4,4.07,14,6.35l.76.36c1.37.66,2.74,1.37,4.11,2.08l.71.37c4,2.08,8,4.26,11.9,6.59.07.05.15.07.22.12l2.23,1.32.22.15A251.11,251.11,0,0,1,413.55,69.3c.08,0,.15.12.22.17s.37.3.54.47l.37.29c.44.37.88.74,1.32,1.13a1.86,1.86,0,0,1,.22.19c.32.25.64.54,1,.84a2.92,2.92,0,0,1,.34.29,246.85,246.85,0,0,1,30.21,31.37l.08.07a.56.56,0,0,0,.14.2l0,0c.59.73,1.17,1.47,1.74,2.23l.17.22a2,2,0,0,1,.29.39l.22.29a237.88,237.88,0,0,1,20.4,30.81l.66,1.22a229.84,229.84,0,0,1,28.18,101.32c0,.81.05,1.62.08,2.45C499.84,246.82,499.86,250.42,499.82,254.05Z"/><path class="cls-3" d="M40.29,140.82V367.44c-.86-1.57-1.67-3.16-2.45-4.77V145.6C38.62,144,39.43,142.42,40.29,140.82Z"/><path class="cls-3" d="M74.47,91.61V416.66c-.76-.84-1.52-1.67-2.23-2.52H72V94.37C72.83,93.44,73.64,92.51,74.47,91.61Z"/><path class="cls-3" d="M108.65,60V448s-.07-.07-.12-.1l-.1-.07c-.73-.56-1.49-1.1-2.22-1.67V61.91C107,61.27,107.82,60.63,108.65,60Z"/><path class="cls-3" d="M142.81,38.25V470c-.83-.39-1.64-.83-2.45-1.27V39.55C141.17,39.11,142,38.67,142.81,38.25Z"/><path class="cls-3" d="M177,23.46V484.8c-.8-.29-1.64-.56-2.44-.88V24.34C175.35,24,176.19,23.76,177,23.46Z"/><path class="cls-3" d="M211.18,493.49v-479c-.81.14-1.64.29-2.45.46V493Z"/><path class="cls-3" d="M245.33,496.87V10.56c-.61,0-1.24,0-1.86.1l-.58,0V496.8Z"/><path class="cls-3" d="M279.52,11.42V495.58l-.22,0c-.74.1-1.5.15-2.23.22V11.22C277.9,11.27,278.71,11.34,279.52,11.42Z"/><path class="cls-3" d="M313.7,17.15V489.58a1.74,1.74,0,0,0-.22.05c-.74.19-1.5.39-2.23.56V16.56C312.06,16.75,312.89,16.93,313.7,17.15Z"/><path class="cls-3" d="M347.88,28.16V478.58a.72.72,0,0,1-.22.1c-.71.32-1.42.59-2.13.86,0,0-.07,0-.1,0V27.16C346.27,27.48,347.07,27.82,347.88,28.16Z"/><path class="cls-3" d="M382,45.28V461.91a.8.8,0,0,0-.22.12c-.74.44-1.49.88-2.23,1.3V43.81C380.4,44.28,381.23,44.77,382,45.28Z"/><path class="cls-3" d="M416.22,437.74V69.94H416c-.71-.64-1.44-1.25-2.18-1.86V439.77Z"/><path class="cls-3" d="M450.4,104.12V401.57c-.8,1.08-1.61,2.13-2.45,3.21V103.48a7.73,7.73,0,0,0,.49.64Z"/><path class="cls-3" d="M484.59,168.57V339.7c-.44,1.22-.91,2.42-1.4,3.65-.32.8-.64,1.64-1,2.45a.12.12,0,0,1-.05.12V162.32C483,164.38,483.8,166.46,484.59,168.57Z"/><path class="cls-3" d="M364.73,35.76q2.38,1.17,4.77,2.44H142.91q2.39-1.28,4.77-2.44Z"/><path class="cls-3" d="M418.72,72.39h-325c.91-.84,1.84-1.64,2.77-2.45H416.22v.24C417.05,70.89,417.89,71.63,418.72,72.39Z"/><path class="cls-3" d="M450.4,104.12v2.45H62.11c.61-.83,1.25-1.64,1.88-2.45Z"/><path class="cls-3" d="M470.8,138.28c.44.81.88,1.61,1.27,2.45H40.34c.41-.84.86-1.64,1.3-2.45Z"/><path class="cls-3" d="M486.89,174.91H26.19c.24-.83.51-1.64.8-2.45H486C486.3,173.27,486.59,174.1,486.89,174.91Z"/><path class="cls-3" d="M495.87,209.09H17.4c.12-.81.29-1.62.44-2.45H495.41C495.58,207.45,495.73,208.28,495.87,209.09Z"/><path class="cls-3" d="M499.79,243.27H12.65c0-.81.07-1.64.12-2.45h486.9C499.72,241.63,499.77,242.46,499.79,243.27Z"/><path class="cls-3" d="M499.13,275c-.05.83-.12,1.64-.2,2.45H13.5c-.07-.81-.14-1.62-.19-2.45Z"/><path class="cls-3" d="M493.79,309.16c-.19.84-.36,1.64-.59,2.45h-474c-.22-.81-.39-1.61-.59-2.45Z"/><path class="cls-3" d="M483.19,343.35c-.32.8-.64,1.64-1,2.45H30.25c-.37-.81-.69-1.65-1-2.45Z"/><path class="cls-3" d="M466.52,377.53c-.45.83-.94,1.64-1.45,2.45H47.37c-.52-.81-1-1.62-1.47-2.45Z"/><path class="cls-3" d="M442.27,411.69c-.66.83-1.37,1.64-2.1,2.45H72v-.25c-.63-.73-1.27-1.47-1.86-2.2Z"/><path class="cls-3" d="M406,445.87c-.42.34-.83.66-1.27,1s-.91.68-1.37,1c-.22.15-.42.32-.64.47H108.65V448s-.07-.07-.12-.1l-.1-.07c-.73-.56-1.49-1.1-2.22-1.67v.27l-.67-.51Z"/><path class="cls-3" d="M344.18,480.05q-2.6,1-5.21,1.91c-.52.2-1.05.37-1.57.54H170.63c-2.11-.78-4.21-1.59-6.27-2.45Z"/><path d="M285,12.47c0-.15-.05-.32-.08-.47-.9-.12-1.83-.22-2.76-.31a3.82,3.82,0,0,0,.09.44c1.69,8.39,2.09,16.21-.51,23.63a1.24,1.24,0,0,1-.1.31c-.27.74-.56,1.45-.88,2.13-.37.84-.78,1.64-1.22,2.45a34.84,34.84,0,0,1-2.45,3.7A35.25,35.25,0,0,1,263.7,54.9a43.46,43.46,0,0,1-18.37,3.82c-.8,0-1.61,0-2.44-.1a45.93,45.93,0,0,1-5.56-.56,42.58,42.58,0,0,1-7.67-1.91,30,30,0,0,0-.22-17.95,24.83,24.83,0,0,0-1-2.44A24.52,24.52,0,0,0,225,30.07c-1.74-2.15-3.46-3.15-5.34-3.11s-3.43,1.18-4.8,3.19a13.83,13.83,0,0,0-2.16,5.61,14.1,14.1,0,0,0-.22,2.44,19.32,19.32,0,0,0,4.88,13.08,25.93,25.93,0,0,0,9,6.39,23.73,23.73,0,0,1-2.52,4.65,26.65,26.65,0,0,1-8.16,7.62l-.24.14a27,27,0,0,1-4.26,2.06,5.73,5.73,0,0,1-.62.25,15.1,15.1,0,0,1-1.83.61c-.32.1-.61.17-.93.24a28.22,28.22,0,0,1-13,.37,25.35,25.35,0,0,1-4.13-1.22,28.08,28.08,0,0,1-5-2.45,31.21,31.21,0,0,1-5-3.77c.12-.1.22-.22.32-.32,6.51-6.86,8.1-17.31,3.74-24.37a12.32,12.32,0,0,0-2.94-3.28,8.24,8.24,0,0,0-4.8-1.86.78.78,0,0,0-.22,0,7.41,7.41,0,0,0-2.22.34,8.16,8.16,0,0,0-2.8,1.54,10.22,10.22,0,0,0-3.11,4.63c-.9,2.87-.73,6.17.49,10.14a34.1,34.1,0,0,0,5.42,10.43,26.4,26.4,0,0,0,2.25,2.72,20.93,20.93,0,0,1-2.25,1.61,26.34,26.34,0,0,1-4,2.21,40,40,0,0,1-7.22,2.45,49.37,49.37,0,0,1-5.68,1,34.77,34.77,0,0,1-14.82-.93.3.3,0,0,1-.19-.07,20.77,20.77,0,0,1-2.26-.86,22.47,22.47,0,0,1-2.81-1.59,1.3,1.3,0,0,0-.15-.1c-5.31-3.67-8.69-10.51-8.81-17.8a28.37,28.37,0,0,1,.56-6l-.47.29c-.83.52-1.66,1.06-2.52,1.57a31.88,31.88,0,0,0-.22,4.24,25.57,25.57,0,0,0,7.44,17.85,18.76,18.76,0,0,0,2.5,2.08c.2.12.39.27.59.37a20.11,20.11,0,0,0,3.89,2,19.08,19.08,0,0,0,2.45.84,38.43,38.43,0,0,0,15.13.78,46,46,0,0,0,13.54-3.62,31.29,31.29,0,0,0,3.07-1.52c.49-.3,1-.61,1.46-.93a8.39,8.39,0,0,0,1-.66c.59-.4,1.16-.84,1.69-1.28A27.92,27.92,0,0,0,181,69.94a30.36,30.36,0,0,0,3.59,2.45,32,32,0,0,0,9.73,3.82,31,31,0,0,0,6.14.63,31.8,31.8,0,0,0,6.07-.61,21.88,21.88,0,0,0,2.21-.49c.83-.22,1.64-.49,2.45-.78a32.59,32.59,0,0,0,5.55-2.57c.57-.35,1.11-.69,1.65-1.06s1.27-.9,1.88-1.39a28.45,28.45,0,0,0,5.75-6.1,27.42,27.42,0,0,0,2.8-5.19,44,44,0,0,0,8.1,2,49.48,49.48,0,0,0,6,.61c.83.05,1.64.08,2.44.08A46,46,0,0,0,264.8,57.3a38.07,38.07,0,0,0,12.27-8.89,32.49,32.49,0,0,0,2.45-2.93,33.28,33.28,0,0,0,4.09-7.28A11.94,11.94,0,0,0,284.1,37c.14-.42.29-.81.39-1.22C286.86,28.31,286.54,20.62,285,12.47ZM178.81,64.31c-.64-.69-1.25-1.4-1.82-2.13a29.88,29.88,0,0,1-2.44-3.56,31.18,31.18,0,0,1-2.89-6.46c-1.06-3.43-1.23-6.22-.49-8.52a7.08,7.08,0,0,1,3.38-4.14,4.71,4.71,0,0,1,2.17-.54h0a.66.66,0,0,1,.24,0c2,.1,4,1.54,5.49,3.89,3.77,6,2.3,15.13-3.4,21.16A1.15,1.15,0,0,0,178.81,64.31Zm48.4-9.14a23.93,23.93,0,0,1-7.83-5.65,16.65,16.65,0,0,1-4.26-11.32,14.94,14.94,0,0,1,.27-2.44,11.67,11.67,0,0,1,1.71-4.14c.49-.74,1.5-2,2.7-2h.07c.93,0,2,.68,3.11,2.1a21.85,21.85,0,0,1,2.57,4,18.29,18.29,0,0,1,1.08,2.44A27,27,0,0,1,227.21,55.17Z"/><path d="M324.77,482.5c-.35-.83-.74-1.64-1.15-2.45a58.64,58.64,0,0,0-4.07-7.05,55.89,55.89,0,0,0-5.85-7.27c-.78-.84-1.62-1.67-2.45-2.43a51.09,51.09,0,0,0-29.73-13.78c-.66-.08-1.34-.1-2-.12s-1.62-.08-2.45,0a45,45,0,0,0-21.94,6,41.58,41.58,0,0,0-6.27-7.05,28,28,0,0,0-3-2.45,2.28,2.28,0,0,0-.52-.39c-.78-.59-1.61-1.15-2.44-1.67a40,40,0,0,0-20.25-6.19,37.69,37.69,0,0,0-11.46,1.54c-.84.22-1.64.47-2.45.76a42.77,42.77,0,0,0-8.77,4.31l-.73-.74A37.92,37.92,0,0,0,177,433c-.8-.1-1.64-.18-2.44-.23A40.81,40.81,0,0,0,154,436.69a43,43,0,0,0-11.19,7.95q-.62.6-1.2,1.23c-.44.44-.83.88-1.25,1.35s-.63.73-.93,1.1a50.19,50.19,0,0,0-8.54,15l2.32,1.39a46.87,46.87,0,0,1,7.15-13.32,32.62,32.62,0,0,1,2.45-2.94.69.69,0,0,1,.15-.14,24.11,24.11,0,0,1,2.4-2.45,39.56,39.56,0,0,1,9.79-6.81,38,38,0,0,1,19.4-3.65c.83,0,1.64.13,2.44.22a35.28,35.28,0,0,1,20.38,9.72l.39.4-.15.12a36.33,36.33,0,0,0-3,2.45,39.64,39.64,0,0,0-11,16.08c-1.62,4.51-2,8.35-1.1,11.71a11.59,11.59,0,0,0,1.88,3.94,10.55,10.55,0,0,0,2.45,2.45,8.86,8.86,0,0,0,4.51,1.69,11.35,11.35,0,0,0,6.22-1.57c.07-.05.14-.07.22-.12a16.83,16.83,0,0,0,3.35-2.45,22.37,22.37,0,0,0,7.05-16.5,28,28,0,0,0-5-15.23c-.47-.71-1-1.4-1.52-2.08l.61-.37a39,39,0,0,1,6.42-3.16c.81-.32,1.61-.59,2.45-.86a35.84,35.84,0,0,1,11.38-1.59,37.55,37.55,0,0,1,18.66,5.61c.56.34,1.13.71,1.67,1.1s1.24.88,1.86,1.35l.58.44a40.07,40.07,0,0,1,7.55,8,39.72,39.72,0,0,0-7.55,6.46,29.72,29.72,0,0,0-2.44,2.94c-.49.66-1,1.34-1.4,2a27.54,27.54,0,0,0-4.43,11.85,20.14,20.14,0,0,0-.15,2.45,16.22,16.22,0,0,0,.32,3.28,9.74,9.74,0,0,0,3.31,6.17,7.24,7.24,0,0,0,2.35,1.25,9.35,9.35,0,0,0,2.44.51.58.58,0,0,0,.22,0c6,.39,12.08-3.63,14.72-9.87a11.94,11.94,0,0,0,.51-1.37,17.28,17.28,0,0,0,.69-2.45,28.38,28.38,0,0,0-1.05-14,37.9,37.9,0,0,0-3.85-8.5,42,42,0,0,1,20.5-5.55c.81,0,1.64,0,2.45,0,.58,0,1.17.07,1.76.12,11,1,21.74,6.42,30,14.82.86.85,1.67,1.73,2.45,2.66a46.85,46.85,0,0,1,3.67,4.83,59.79,59.79,0,0,1,3.31,5.58c.41.81.83,1.62,1.2,2.45.68,1.44,1.27,2.91,1.81,4.41h0c.84-.25,1.67-.49,2.5-.76h0C325.79,484.9,325.31,483.7,324.77,482.5Zm-119.2-18.93c.07,6.81-3.48,13.4-8.84,16.48a2.59,2.59,0,0,1-.39.25,8.71,8.71,0,0,1-4.78,1.24,6.19,6.19,0,0,1-3.52-1.49,9.06,9.06,0,0,1-3-4.63c-.73-2.81-.39-6.12,1.06-10.13a37.45,37.45,0,0,1,12.63-17,7.64,7.64,0,0,1,.74-.59c.14.2.32.39.44.59A25.76,25.76,0,0,1,205.57,463.57Zm52.33,3.28a25.36,25.36,0,0,1,.88,13.2,18.38,18.38,0,0,1-.79,2.45l-.14.34c-2.18,5.12-7.3,8.6-12.1,8.25l-.42,0a6.36,6.36,0,0,1-2.44-.71,3.64,3.64,0,0,1-.71-.47,7.66,7.66,0,0,1-2.36-4.6,15.08,15.08,0,0,1-.26-2.79,15.69,15.69,0,0,1,.17-2.45,23.62,23.62,0,0,1,3.16-9,14.58,14.58,0,0,1,.83-1.42,26.9,26.9,0,0,1,1.61-2.28,36.26,36.26,0,0,1,9-8.37A33.81,33.81,0,0,1,257.9,466.85Z"/><polygon class="cls-4" points="201.13 165.88 157.26 174.98 190.71 204.79 148.16 190.7 162.26 233.24 132.45 199.79 123.35 243.66 114.25 199.79 84.44 233.24 98.53 190.7 55.99 204.79 89.44 174.98 45.57 165.88 89.44 156.78 55.99 126.97 98.53 141.06 84.44 98.52 114.25 131.97 123.35 88.1 132.45 131.97 162.26 98.52 148.16 141.06 190.71 126.97 157.26 156.78 201.13 165.88"/><polygon class="cls-4" points="468.49 341.92 425 350.94 458.16 380.49 415.99 366.52 429.96 408.69 400.41 375.53 391.39 419.02 382.37 375.53 352.82 408.69 366.79 366.52 324.62 380.49 357.77 350.94 314.29 341.92 357.77 332.9 324.62 303.34 366.79 317.32 352.82 275.14 382.37 308.3 391.39 264.81 400.41 308.3 429.96 275.14 415.99 317.32 458.16 303.35 425 332.9 468.49 341.92"/><line class="cls-5" x1="367.91" y1="66.99" x2="367.91" y2="142.84"/><line class="cls-5" x1="394.72" y1="78.1" x2="341.09" y2="131.74"/><line class="cls-5" x1="405.83" y1="104.92" x2="329.98" y2="104.92"/><line class="cls-5" x1="394.72" y1="131.74" x2="341.09" y2="78.1"/><line class="cls-5" x1="98.25" y1="337.48" x2="98.25" y2="413.34"/><line class="cls-5" x1="125.07" y1="348.59" x2="71.43" y2="402.23"/><line class="cls-5" x1="136.18" y1="375.41" x2="60.32" y2="375.41"/><line class="cls-5" x1="125.07" y1="402.23" x2="71.43" y2="348.59"/><rect class="cls-6" x="141.9" y="99.81" width="226.32" height="305.09" transform="translate(118.1 -79.28) rotate(22.86)"/><rect x="336.18" y="139.09" width="24.1" height="305.09" transform="translate(140.68 -112.39) rotate(22.86)"/><polygon points="378.54 155.45 377.32 158.35 334.71 167.61 203.75 131.52 200.93 130.33 218.75 88.07 378.54 155.45"/><rect class="cls-3" x="269.21" y="59.8" width="42.73" height="170.29" transform="translate(44.11 356.36) rotate(-67.14)"/><rect class="cls-7" x="183.82" y="162.23" width="43.58" height="42.29" transform="translate(89.01 -66.24) rotate(23.23)"/><rect class="cls-7" x="239.96" y="186.33" width="43.58" height="42.29" transform="translate(103.07 -86.43) rotate(23.23)"/><rect class="cls-7" x="296.1" y="210.43" width="43.58" height="42.29" transform="translate(117.13 -106.62) rotate(23.23)"/><rect class="cls-7" x="159.16" y="220.73" width="43.58" height="42.29" transform="translate(110.09 -51.76) rotate(23.23)"/><rect class="cls-7" x="215.29" y="244.83" width="43.58" height="42.29" transform="translate(124.14 -71.95) rotate(23.23)"/><rect class="cls-7" x="258.8" y="266.33" width="43.58" height="106.34" transform="translate(148.78 -84.77) rotate(23.23)"/><rect class="cls-7" x="134.49" y="279.23" width="43.58" height="42.29" transform="translate(131.16 -37.29) rotate(23.23)"/><rect class="cls-7" x="190.62" y="303.33" width="43.58" height="42.29" transform="translate(145.22 -57.48) rotate(23.23)"/><rect class="cls-8" x="426.25" y="204.11" width="40.01" height="40.01"/><line class="cls-8" x1="447.08" y1="211.16" x2="447.08" y2="236.25"/><line class="cls-8" x1="459.62" y1="223.71" x2="434.54" y2="223.71"/><rect class="cls-8" x="35.52" y="258.29" width="40.01" height="40.01"/><line class="cls-8" x1="68.89" y1="277.89" x2="43.8" y2="277.89"/></g></svg>